# xmcd CD database file
#
# Track frame offsets:
#	150
#	14776
#	31192
#	57155
#
# Disc length: 957 seconds
#
# Revision: 2
# Processed by: cddbd v1.5.2PL0 Copyright (c) Steve Scherf et al.
# Submitted via: CDex 1.70beta2
#
DISCID=2c03bb04
DTITLE=アナログフィッシュ - スピード
DYEAR=2005
DGENRE=Rock
TTITLE0=スピード
TTITLE1=月の花
TTITLE2=テキサス
TTITLE3=スピード (Karaoke)
EXTD=YEAR: 2005
EXTT0=
EXTT1=
EXTT2=
EXTT3=
PLAYORDER=
